# xmcd
#
# Track frame offsets: 
#        150
#        19470
#        39438
#        50811
#        60618
#        71046
#        93552
#        101505
#        112401
#        125367
#
# Disc length: 1825 seconds
#
# Revision: 1
# Processed by: cddbd v1.5.2PL0 Copyright (c) Steve Scherf et al.
# Submitted via: ExactAudioCopy v1.3
#
DISCID=95071f0a
DTITLE=Marty Robbins - El Paso City
DYEAR=1976
DGENRE=Country
TTITLE0=El Paso City
TTITLE1=Ava Maria Morales
TTITLE2=I'm Gonna Miss You When You Go
TTITLE3=Kin to the Wind
TTITLE4=Way Out There
TTITLE5=The Ballad of Bill Thaxton
TTITLE6=Trail Dreamin'
TTITLE7=I Did What I Did for Maria
TTITLE8=She's Just a Drifter
TTITLE9=Among my Souveniers
EXTD=Album remastered in 1993
EXTT0=
EXTT1=
EXTT2=
EXTT3=
EXTT4=
EXTT5=
EXTT6=
EXTT7=
EXTT8=
EXTT9=
PLAYORDER=
